<?xml version="1.0" encoding="UTF-8"?>
<svg width="27px" height="12px" viewBox="0 0 27 12" version="1.1" xmlns="http://www.w3.org/2000/svg" xmlns:xlink="http://www.w3.org/1999/xlink">
    <!-- Generator: Sketch 61 (89581) - https://sketch.com -->
    <title>Logo</title>
    <desc>Created with Sketch.</desc>
    <g id="Page-1" stroke="none" stroke-width="1" fill="none" fill-rule="evenodd">
        <path d="M6.28125,9 L6.28125,7.41796875 L2.70117188,7.41796875 L2.70117188,0.46875 L0.64453125,0.46875 L0.64453125,9 L6.28125,9 Z M9.87304688,9.1171875 C10.8105469,9.1171875 11.5537109,8.82714844 12.1025391,8.24707031 C12.6513672,7.66699219 12.9257812,6.8828125 12.9257812,5.89453125 L12.9257812,5.89453125 L12.9257812,5.82421875 C12.9257812,4.8125 12.6523438,4.01269531 12.1054688,3.42480469 C11.5585938,2.83691406 10.8105469,2.54296875 9.86132812,2.54296875 C9.24023438,2.54296875 8.69921875,2.67578125 8.23828125,2.94140625 C7.77734375,3.20703125 7.42382812,3.58691406 7.17773438,4.08105469 C6.93164062,4.57519531 6.80859375,5.13867188 6.80859375,5.77148438 L6.80859375,5.77148438 L6.81445312,6.10546875 C6.85742188,7.03125 7.15234375,7.76464844 7.69921875,8.30566406 C8.24609375,8.84667969 8.97070312,9.1171875 9.87304688,9.1171875 Z M9.87304688,7.59375 C9.51367188,7.59375 9.2421875,7.45703125 9.05859375,7.18359375 C8.875,6.91015625 8.78320312,6.48046875 8.78320312,5.89453125 L8.78320312,5.89453125 L8.7890625,5.53710938 C8.84375,4.55664062 9.20117188,4.06640625 9.86132812,4.06640625 C10.5878906,4.06640625 10.9511719,4.63476562 10.9511719,5.77148438 L10.9511719,5.77148438 L10.9511719,5.97070312 C10.9355469,7.05273438 10.5761719,7.59375 9.87304688,7.59375 Z M16.3476562,11.4960938 C16.9960938,11.4960938 17.5664062,11.3857422 18.0585938,11.1650391 C18.5507812,10.9443359 18.9267578,10.6279297 19.1865234,10.2158203 C19.4462891,9.80371094 19.5761719,9.31835938 19.5761719,8.75976562 L19.5761719,8.75976562 L19.5761719,2.66015625 L17.7832031,2.66015625 L17.7128906,3.2109375 C17.3417969,2.765625 16.8261719,2.54296875 16.1660156,2.54296875 C15.6425781,2.54296875 15.1835938,2.67675781 14.7890625,2.94433594 C14.3945312,3.21191406 14.0917969,3.59179688 13.8808594,4.08398438 C13.6699219,4.57617188 13.5644531,5.14257812 13.5644531,5.78320312 L13.5644531,5.78320312 L13.5644531,5.85351562 C13.5644531,6.84570312 13.8027344,7.63769531 14.2792969,8.22949219 C14.7558594,8.82128906 15.3808594,9.1171875 16.1542969,9.1171875 C16.7324219,9.1171875 17.2109375,8.90820312 17.5898438,8.49023438 L17.5898438,8.49023438 L17.5898438,8.68945312 C17.5898438,9.58789062 17.1523438,10.0371094 16.2773438,10.0371094 C15.6757812,10.0371094 15.1914062,9.8203125 14.8242188,9.38671875 L14.8242188,9.38671875 L13.9980469,10.546875 C14.2285156,10.828125 14.5615234,11.0566406 14.9970703,11.2324219 C15.4326172,11.4082031 15.8828125,11.4960938 16.3476562,11.4960938 Z M16.6582031,7.59375 C16.3066406,7.59375 16.0332031,7.44238281 15.8378906,7.13964844 C15.6425781,6.83691406 15.5449219,6.42578125 15.5449219,5.90625 C15.5449219,5.30859375 15.6445312,4.85253906 15.84375,4.53808594 C16.0429688,4.22363281 16.3183594,4.06640625 16.6699219,4.06640625 C17.0917969,4.06640625 17.3984375,4.2109375 17.5898438,4.5 L17.5898438,4.5 L17.5898438,7.16601562 C17.3945312,7.45117188 17.0839844,7.59375 16.6582031,7.59375 Z M23.5136719,9.1171875 C24.4511719,9.1171875 25.1943359,8.82714844 25.7431641,8.24707031 C26.2919922,7.66699219 26.5664062,6.8828125 26.5664062,5.89453125 L26.5664062,5.89453125 L26.5664062,5.82421875 C26.5664062,4.8125 26.2929688,4.01269531 25.7460938,3.42480469 C25.1992188,2.83691406 24.4511719,2.54296875 23.5019531,2.54296875 C22.8808594,2.54296875 22.3398438,2.67578125 21.8789062,2.94140625 C21.4179688,3.20703125 21.0644531,3.58691406 20.8183594,4.08105469 C20.5722656,4.57519531 20.4492188,5.13867188 20.4492188,5.77148438 L20.4492188,5.77148438 L20.4550781,6.10546875 C20.4980469,7.03125 20.7929688,7.76464844 21.3398438,8.30566406 C21.8867188,8.84667969 22.6113281,9.1171875 23.5136719,9.1171875 Z M23.5136719,7.59375 C23.1542969,7.59375 22.8828125,7.45703125 22.6992188,7.18359375 C22.515625,6.91015625 22.4238281,6.48046875 22.4238281,5.89453125 L22.4238281,5.89453125 L22.4296875,5.53710938 C22.484375,4.55664062 22.8417969,4.06640625 23.5019531,4.06640625 C24.2285156,4.06640625 24.5917969,4.63476562 24.5917969,5.77148438 L24.5917969,5.77148438 L24.5917969,5.97070312 C24.5761719,7.05273438 24.2167969,7.59375 23.5136719,7.59375 Z" id="Logo" fill="#000000" fill-rule="nonzero"></path>
    </g>
</svg>